<svg data-v-423bf9ae="" xmlns="http://www.w3.org/2000/svg" viewBox="0 -30 140 160" class="iconLeft">
<defs data-v-423bf9ae=""><linearGradient data-v-423bf9ae="" gradientTransform="rotate(25)" id="a0054e6d-f112-44a0-8fb3-a1a9b225d95b" x1="0%" y1="0%" x2="100%" y2="0%"><stop data-v-423bf9ae="" offset="0%" style="stop-color: hsl(215, 96%, 28%); stop-opacity: 1;"></stop><stop data-v-423bf9ae="" offset="100%" style="stop-color: hsl(215, 96%, 62%); stop-opacity: 1;"></stop></linearGradient></defs><g data-v-423bf9ae="" id="00f76ee2-faf6-417c-a858-e40a21b1194d" transform="matrix(4.880958550468914,0,0,4.880958550468914,-14.18047082506152,-32.31678141737257)" stroke="none" fill="url(#a0054e6d-f112-44a0-8fb3-a1a9b225d95b)"><path d="M28.59 10.781h-2.242a.497.497 0 00-.333.133c-.716-1.143-1.457-2.058-2.032-2.633-2-2-14-2-16 0-.573.573-1.309 1.482-2.022 2.617a.492.492 0 00-.309-.117H3.41c-.275 0-.5.225-.5.5v1.008c0 .275.221.542.491.594l1.359.259c-1.174 2.619-1.866 5.877-.778 9.14v1.938c0 .553.14 1 .313 1h2.562c.173 0 .313-.447.313-1v-1.584c2.298.219 5.551.459 8.812.459 3.232 0 6.521-.235 8.814-.453v1.578c0 .553.141 1 .312 1h2.562c.172 0 .312-.447.312-1l-.002-1.938c1.087-3.261.397-6.516-.775-9.134l1.392-.265a.629.629 0 00.491-.594v-1.008a.498.498 0 00-.498-.5zM7.107 18.906a1.812 1.812 0 110-3.625 1.812 1.812 0 010 3.625zm-1.524-5.19c.96-2.197 2.296-3.917 3.106-4.728.585-.585 3.34-1.207 7.293-1.207 3.953 0 6.708.622 7.293 1.207.811.811 2.146 2.53 3.106 4.728-2.133.236-6.286-.31-10.399-.31s-8.266.546-10.399.31zm19.274 5.19a1.812 1.812 0 110-3.625 1.812 1.812 0 010 3.625z"></path></g><!----></svg>