<svg data-v-423bf9ae="" xmlns="http://www.w3.org/2000/svg" viewBox="0 0 485 90" class="iconLeft"><!----><!----><!----><g data-v-423bf9ae="" id="01f405f8-cf95-46dd-afab-6440806e7230" fill="#08374E" transform="matrix(5.2910052198109945,0,0,5.2910052198109945,144.59916912769623,0.7142868463084184)"><path d="M4.23 14.04Q3.22 14.04 2.39 13.57Q1.57 13.10 1.08 12.24Q0.60 11.38 0.60 10.28L0.60 10.28Q0.60 9.11 1.11 8.26Q1.62 7.41 2.45 6.97Q3.28 6.52 4.23 6.52L4.23 6.52Q5.03 6.52 5.68 6.80Q6.34 7.07 6.73 7.56Q7.11 8.05 7.11 8.67L7.11 8.67Q7.11 9.13 6.87 9.37Q6.64 9.62 6.24 9.62L6.24 9.62Q5.87 9.62 5.61 9.37Q5.36 9.11 5.36 8.74L5.36 8.74Q5.57 8.60 5.66 8.43Q5.74 8.26 5.74 8.01L5.74 8.01Q5.74 7.49 5.33 7.16Q4.91 6.83 4.23 6.83L4.23 6.83Q3.22 6.83 2.68 7.55Q2.14 8.27 2.14 9.58L2.14 9.58L2.14 10.98Q2.14 12.22 2.67 12.98Q3.19 13.73 4.23 13.73L4.23 13.73Q5.18 13.73 5.89 13.20Q6.59 12.66 6.76 11.77L6.76 11.77L7.08 11.77Q6.89 12.81 6.11 13.43Q5.33 14.04 4.23 14.04L4.23 14.04ZM10.14 14.04Q9.24 14.04 8.67 13.57Q8.09 13.10 8.09 12.18L8.09 12.18Q8.09 10.86 9.20 10.31Q10.30 9.76 11.76 9.76L11.76 9.76L12.70 9.76L12.70 8.68Q12.70 7.95 12.54 7.55Q12.38 7.15 12.04 6.99Q11.70 6.83 11.13 6.83L11.13 6.83Q10.47 6.83 10.15 7.09Q9.83 7.35 9.83 7.78L9.83 7.78Q9.83 8.19 10.22 8.32L10.22 8.32Q10.22 8.67 9.95 8.93Q9.69 9.20 9.32 9.20L9.32 9.20Q8.93 9.20 8.69 8.98Q8.46 8.76 8.46 8.32L8.46 8.32Q8.46 7.50 9.27 7.01Q10.08 6.52 11.30 6.52L11.30 6.52Q14.10 6.52 14.10 8.96L14.10 8.96L14.10 12.96Q14.10 13.27 14.23 13.43Q14.36 13.59 14.62 13.59L14.62 13.59Q14.85 13.59 14.99 13.43Q15.13 13.27 15.13 12.99L15.13 12.99L15.43 12.99Q15.43 13.48 15.11 13.76Q14.80 14.04 14.24 14.04L14.24 14.04Q13.59 14.04 13.15 13.67Q12.71 13.30 12.70 12.52L12.70 12.52Q12.36 13.23 11.67 13.64Q10.98 14.04 10.14 14.04L10.14 14.04ZM10.91 13.43Q11.28 13.43 11.68 13.20Q12.08 12.98 12.36 12.55Q12.64 12.12 12.70 11.52L12.70 11.52L12.70 10.07L11.76 10.07Q10.61 10.07 10.04 10.58Q9.48 11.09 9.48 12.01L9.48 12.01Q9.48 12.78 9.84 13.10Q10.21 13.43 10.91 13.43L10.91 13.43ZM15.76 13.90L15.76 13.62L16.74 13.48L16.74 7.07L15.76 6.93L15.76 6.65L18.14 6.65L18.14 7.73Q19.03 6.52 20.13 6.52L20.13 6.52Q20.66 6.52 21.07 6.80Q21.48 7.07 21.48 7.57L21.48 7.57Q21.48 7.94 21.24 8.18Q21 8.43 20.61 8.43L20.61 8.43Q20.16 8.43 19.88 8.08L19.88 8.08Q20.03 7.88 20.03 7.66L20.03 7.66Q20.03 7.42 19.87 7.27Q19.71 7.13 19.45 7.13L19.45 7.13Q19.15 7.13 18.84 7.40Q18.54 7.67 18.14 8.25L18.14 8.25L18.14 13.48L19.26 13.62L19.26 13.90L15.76 13.90ZM25.30 13.90L25.30 13.62L26.28 13.48L26.28 7.07L25.30 6.93L25.30 6.65L27.68 6.65L27.68 7.73Q28.56 6.52 29.67 6.52L29.67 6.52Q30.20 6.52 30.60 6.80Q31.01 7.07 31.01 7.57L31.01 7.57Q31.01 7.94 30.77 8.18Q30.53 8.43 30.14 8.43L30.14 8.43Q29.69 8.43 29.41 8.08L29.41 8.08Q29.57 7.88 29.57 7.66L29.57 7.66Q29.57 7.42 29.41 7.27Q29.25 7.13 28.98 7.13L28.98 7.13Q28.69 7.13 28.38 7.40Q28.07 7.67 27.68 8.25L27.68 8.25L27.68 13.48L28.80 13.62L28.80 13.90L25.30 13.90ZM35.27 14.04Q34.23 14.04 33.39 13.57Q32.55 13.10 32.06 12.25Q31.57 11.40 31.57 10.28L31.57 10.28Q31.57 9.16 32.05 8.31Q32.54 7.46 33.35 6.99Q34.17 6.52 35.18 6.52L35.18 6.52Q36.06 6.52 36.76 6.92Q37.46 7.31 37.86 8.00Q38.25 8.69 38.26 9.59L38.26 9.59L33.11 9.59L33.11 10.98Q33.11 12.21 33.66 12.97Q34.22 13.73 35.27 13.73L35.27 13.73Q36.23 13.73 36.97 13.19Q37.72 12.64 37.88 11.77L37.88 11.77L38.21 11.77Q38.01 12.81 37.21 13.43Q36.41 14.04 35.27 14.04L35.27 14.04ZM33.12 9.24L36.72 9.24Q36.72 8.02 36.34 7.43Q35.97 6.83 35.17 6.83L35.17 6.83Q34.23 6.83 33.71 7.49Q33.19 8.15 33.12 9.24L33.12 9.24ZM39.20 13.90L39.20 13.62L40.18 13.48L40.18 7.07L39.20 6.93L39.20 6.65L41.58 6.65L41.58 8.16Q42.10 7.41 42.80 6.97Q43.50 6.52 44.31 6.52L44.31 6.52Q45.32 6.52 45.90 7.03Q46.48 7.53 46.48 8.53L46.48 8.53L46.48 13.48L47.46 13.62L47.46 13.90L44.24 13.90L44.24 13.62L45.08 13.48L45.08 8.55Q45.08 7.83 44.79 7.43Q44.49 7.03 43.88 7.03L43.88 7.03Q43.23 7.03 42.64 7.50Q42.04 7.97 41.58 8.65L41.58 8.65L41.58 13.48L42.42 13.62L42.42 13.90L39.20 13.90ZM50.99 14.04Q50.06 14.04 49.51 13.58Q48.96 13.12 48.96 12.11L48.96 12.11L48.96 7.07L47.96 6.93L47.96 6.65L48.96 6.65L48.96 5.49L50.36 5.14L50.36 6.65L52.18 6.65L52.18 6.93L50.36 7.07L50.36 12.08Q50.36 13.57 51.42 13.57L51.42 13.57Q51.65 13.57 51.85 13.50Q52.05 13.43 52.17 13.36Q52.29 13.29 52.32 13.26L52.32 13.26L52.50 13.48Q51.87 14.04 50.99 14.04L50.99 14.04ZM55.26 14.04Q54.36 14.04 53.79 13.57Q53.21 13.10 53.21 12.18L53.21 12.18Q53.21 10.86 54.32 10.31Q55.43 9.76 56.88 9.76L56.88 9.76L57.82 9.76L57.82 8.68Q57.82 7.95 57.66 7.55Q57.50 7.15 57.16 6.99Q56.83 6.83 56.25 6.83L56.25 6.83Q55.59 6.83 55.27 7.09Q54.95 7.35 54.95 7.78L54.95 7.78Q54.95 8.19 55.34 8.32L55.34 8.32Q55.34 8.67 55.08 8.93Q54.81 9.20 54.45 9.20L54.45 9.20Q54.05 9.20 53.82 8.98Q53.58 8.76 53.58 8.32L53.58 8.32Q53.58 7.50 54.39 7.01Q55.20 6.52 56.42 6.52L56.42 6.52Q59.22 6.52 59.22 8.96L59.22 8.96L59.22 12.96Q59.22 13.27 59.35 13.43Q59.49 13.59 59.74 13.59L59.74 13.59Q59.98 13.59 60.12 13.43Q60.26 13.27 60.26 12.99L60.26 12.99L60.55 12.99Q60.55 13.48 60.23 13.76Q59.92 14.04 59.36 14.04L59.36 14.04Q58.72 14.04 58.27 13.67Q57.83 13.30 57.82 12.52L57.82 12.52Q57.48 13.23 56.79 13.64Q56.10 14.04 55.26 14.04L55.26 14.04ZM56.03 13.43Q56.41 13.43 56.80 13.20Q57.20 12.98 57.48 12.55Q57.76 12.12 57.82 11.52L57.82 11.52L57.82 10.07L56.88 10.07Q55.73 10.07 55.17 10.58Q54.60 11.09 54.60 12.01L54.60 12.01Q54.60 12.78 54.96 13.10Q55.33 13.43 56.03 13.43L56.03 13.43ZM64.22 13.90L60.79 13.90L60.79 13.62L61.84 13.48L61.84 3.12L60.79 2.98L60.79 2.70L63.24 2.70L63.24 13.48L64.22 13.62L64.22 13.90Z"></path></g><defs data-v-423bf9ae=""><linearGradient data-v-423bf9ae="" gradientTransform="rotate(25)" id="a0054e6d-f112-44a0-8fb3-a1a9b225d95b" x1="0%" y1="0%" x2="100%" y2="0%"><stop data-v-423bf9ae="" offset="0%" style="stop-color: rgb(13, 124, 233); stop-opacity: 1;"></stop><stop data-v-423bf9ae="" offset="100%" style="stop-color: rgb(21, 207, 241); stop-opacity: 1;"></stop></linearGradient></defs><g data-v-423bf9ae="" id="00f76ee2-faf6-417c-a858-e40a21b1194d" transform="matrix(4.880958550468914,0,0,4.880958550468914,-14.18047082506152,-32.31678141737257)" stroke="none" fill="url(#a0054e6d-f112-44a0-8fb3-a1a9b225d95b)"><path d="M28.59 10.781h-2.242a.497.497 0 00-.333.133c-.716-1.143-1.457-2.058-2.032-2.633-2-2-14-2-16 0-.573.573-1.309 1.482-2.022 2.617a.492.492 0 00-.309-.117H3.41c-.275 0-.5.225-.5.5v1.008c0 .275.221.542.491.594l1.359.259c-1.174 2.619-1.866 5.877-.778 9.14v1.938c0 .553.14 1 .313 1h2.562c.173 0 .313-.447.313-1v-1.584c2.298.219 5.551.459 8.812.459 3.232 0 6.521-.235 8.814-.453v1.578c0 .553.141 1 .312 1h2.562c.172 0 .312-.447.312-1l-.002-1.938c1.087-3.261.397-6.516-.775-9.134l1.392-.265a.629.629 0 00.491-.594v-1.008a.498.498 0 00-.498-.5zM7.107 18.906a1.812 1.812 0 110-3.625 1.812 1.812 0 010 3.625zm-1.524-5.19c.96-2.197 2.296-3.917 3.106-4.728.585-.585 3.34-1.207 7.293-1.207 3.953 0 6.708.622 7.293 1.207.811.811 2.146 2.53 3.106 4.728-2.133.236-6.286-.31-10.399-.31s-8.266.546-10.399.31zm19.274 5.19a1.812 1.812 0 110-3.625 1.812 1.812 0 010 3.625z"></path></g><!----></svg>